<?xml version="1.0" encoding="UTF-8"?>
<svg width="100" height="100" viewBox="0 0 100 100" xmlns="http://www.w3.org/2000/svg">
  <g fill="currentColor">
    <!-- Adinkra-inspired pattern -->
    <path d="M50 10c-22.1 0-40 17.9-40 40s17.9 40 40 40 40-17.9 40-40-17.9-40-40-40zm0 70c-16.5 0-30-13.5-30-30s13.5-30 30-30 30 13.5 30 30-13.5 30-30 30z"/>
    <path d="M50 25c-13.8 0-25 11.2-25 25s11.2 25 25 25 25-11.2 25-25-11.2-25-25-25zm0 40c-8.3 0-15-6.7-15-15s6.7-15 15-15 15 6.7 15 15-6.7 15-15 15z"/>
    <!-- Decorative elements -->
    <circle cx="50" cy="20" r="3"/>
    <circle cx="50" cy="80" r="3"/>
    <circle cx="20" cy="50" r="3"/>
    <circle cx="80" cy="50" r="3"/>
  </g>
</svg>
